#!OML:ASF E:\acrobat2\Project_11_07_03\Capture day 1\Session 1\Acrobat.ASF
:FULLY-SPECIFIED
:DEGREES
492
root 4.42187 28.2125 -20.9173 8.42782 7.37867 -1.06483
lowerback 3.69376 1.66877 -0.0244898
upperback 3.4296 2.2357 -1.19737
thorax 1.49749 1.13341 -1.26498
lowerneck -6.92081 -3.05256 -4.41466
upperneck 14.3803 -4.3694 5.44303
head 5.68983 -1.9775 2.13022
rclavicle -4.82053e-014 5.08889e-014
rhumerus -35.5137 -1.26159 -80.9472
rradius 34.6008
rwrist 4.33099
rhand -1.99981 -18.6908
rfingers 7.12502
rthumb 23.6736 -47.2531
lclavicle -4.82053e-014 5.08889e-014
lhumerus -28.6498 -14.6593 80.501
lradius 40.2127
lwrist 11.1166
lhand -11.8693 -15.8596
lfingers 7.12502
lthumb 14.183 13.6363
rfemur -14.6752 -5.63903 19.9081
rtibia 29.9349
rfoot -14.6684 -7.21211
rtoes -9.28161
lfemur -16.2556 -5.45796 -17.7628
ltibia 20.492
lfoot -5.198 -3.84136
ltoes 28.956
493
root 4.42081 28.2145 -20.8529 8.44186 7.86043 -1.03579
lowerback 3.61549 1.65555 0.1344
upperback 3.37588 2.22202 -1.195
thorax 1.49159 1.12962 -1.34951
lowerneck -6.83182 -3.13219 -4.52513
upperneck 14.5234 -4.48425 5.52822
head 5.72951 -2.03298 2.16812
rclavicle -1.63003e-014 1.86858e-014
rhumerus -35.657 -0.882446 -81.0674
rradius 34.8094
rwrist 4.62251
rhand -2.24566 -18.2639
rfingers 7.12502
rthumb 23.4378 -46.8564
lclavicle -1.63003e-014 1.86858e-014
lhumerus -28.8036 -14.9072 80.5914
lradius 40.8561
lwrist 11.3225
lhand -11.6035 -15.9221
lfingers 7.12502
lthumb 14.439 13.5556
rfemur -13.9303 -5.6974 20.1375
rtibia 29.7575
rfoot -15.1054 -7.42134
rtoes -11.1926
lfemur -16.5859 -5.54079 -17.5438
ltibia 20.2875
lfoot -4.19188 -3.3147
ltoes 29.0924
494
root 4.41857 28.2147 -20.7877 8.47671 8.36002 -0.993549
lowerback 3.51593 1.6443 0.276597
upperback 3.31519 2.21032 -1.18537
thorax 1.48949 1.1263 -1.41677
lowerneck -6.73153 -3.2246 -4.62843
upperneck 14.6431 -4.61567 5.60416
head 5.76069 -2.09715 2.20085
rclavicle -3.97569e-014 -1.43125e-014
rhumerus -35.8085 -0.539779 -81.1564
rradius 35.0067
rwrist 4.98379
rhand -2.65293 -17.6948
rfingers 7.12502
rthumb 23.047 -46.3367
lclavicle -3.97569e-014 -1.43125e-014
lhumerus -28.9883 -15.1762 80.7082
lradius 41.5155
lwrist 11.5023
lhand -11.3998 -15.9692
lfingers 7.12502
lthumb 14.6354 13.4943
rfemur -13.0945 -5.64847 20.3731
rtibia 29.2207
rfoot -15.6015 -7.75024
rtoes -13.0646
lfemur -16.9512 -5.61419 -17.3121
ltibia 20.1
lfoot -3.14251 -2.79554
ltoes 29.4345
495
root 4.41584 28.2129 -20.7214 8.52252 8.82782 -0.948972
lowerback 3.38621 1.64667 0.402665
upperback 3.26405 2.21613 -1.15895
thorax 1.51327 1.13128 -1.45702
lowerneck -6.63895 -3.33046 -4.74529
upperneck 14.7321 -4.76112 5.67086
head 5.78482 -2.16968 2.23172
rclavicle -2.28602e-014 -7.95139e-015
rhumerus -35.9406 -0.209736 -81.2046
rradius 35.2476
rwrist 5.30018
rhand -3.0473 -17.2342
rfingers 7.12502
rthumb 22.6686 -45.9228
lclavicle -2.28602e-014 -7.95139e-015
lhumerus -29.1736 -15.4122 80.8478
lradius 42.1507
lwrist 11.6324
lhand -11.2305 -16.0966
lfingers 7.12502
lthumb 14.7984 13.355
rfemur -12.1825 -5.47196 20.6213
rtibia 28.3629
rfoot -16.1552 -8.1796
rtoes -14.7225
lfemur -17.3197 -5.66933 -17.0575
ltibia 19.8971
lfoot -2.07481 -2.24421
ltoes 29.8359
496
root 4.41213 28.2091 -20.6558 8.58027 9.2667 -0.913686
lowerback 3.2407 1.65949 0.520973
upperback 3.22245 2.23522 -1.11049
thorax 1.55493 1.14257 -1.46984
lowerneck -6.56129 -3.44248 -4.89426
upperneck 14.7914 -4.90885 5.73319
head 5.80339 -2.24543 2.26608
rclavicle -2.94201e-014 6.36111e-015
rhumerus -36.0529 0.106786 -81.2087
rradius 35.5442
rwrist 5.53658
rhand -3.39254 -16.9198
rfingers 7.12502
rthumb 22.3372 -45.6486
lclavicle -2.94201e-014 6.36111e-015
lhumerus -29.3345 -15.5782 80.9993
lradius 42.7348
lwrist 11.696
lhand -10.9831 -16.3656
lfingers 7.12502
lthumb 15.0367 13.0684
rfemur -11.2298 -5.17966 20.9008
rtibia 27.2357
rfoot -16.7756 -8.72458
rtoes -16.221
lfemur -17.7068 -5.71006 -16.7624
ltibia 19.6786
lfoot -0.991402 -1.65152
ltoes 30.1678
